<?xml version="1.0" encoding="iso-8859-1"?>
<!-- Generator: Adobe Illustrator 19.0.0, SVG Export Plug-In . SVG Version: 6.00 Build 0)  -->
<svg version="1.1" id="Capa_1" xmlns="http://www.w3.org/2000/svg" xmlns:xlink="http://www.w3.org/1999/xlink" x="0px" y="0px"
	 viewBox="0 0 512.001 512.001" style="enable-background:new 0 0 512.001 512.001;" xml:space="preserve">
<g>
	<g>
		<path style="fill:#579ADD;" d="M111.407,267.979c0.836,0,1.514,0.678,1.514,1.514v1.376c0,10.797-0.172,20.533-11.806,28.037
			c-11.635,7.368-25.834,7.237-40.72,7.237C25.493,306.143,0,304.829,0,268.767v-25.532c0-32.638,22.756-37.376,60.394-37.376
			c38.107,0,51.914,3.612,52.344,34.664c0.012,0.84-0.674,1.528-1.515,1.528H79.018c-0.836,0-1.514-0.678-1.514-1.514v-2.176
			c0-0.085-0.006-0.172-0.018-0.256c-1.258-8.693-9.278-9.347-20.855-9.347c-19.504,0-21.386,4.605-21.386,18.688v15.398
			c0,14.741,0.856,20.397,21.386,20.397c14.201,0,21.044-0.788,21.044-12.372v-1.376c0-0.836,0.678-1.514,1.514-1.514H111.407z"/>
		<path style="fill:#579ADD;" d="M149.843,288.376l-5.964,15.989c-0.221,0.592-0.786,0.985-1.418,0.985h-32.32
			c-1.065,0-1.797-1.071-1.41-2.064l37.315-95.673c0.227-0.581,0.786-0.964,1.41-0.964h49.947c0.621,0,1.179,0.38,1.408,0.957
			l37.812,95.673c0.393,0.993-0.34,2.07-1.408,2.07H203.57c-0.622,0-1.181-0.381-1.409-0.96l-5.918-15.054
			c-0.228-0.579-0.786-0.96-1.409-0.96L149.843,288.376L149.843,288.376z M173.11,226.389h-0.342l-14.831,40.743
			c-0.359,0.987,0.372,2.031,1.422,2.031h27.483c1.055,0,1.787-1.052,1.419-2.041L173.11,226.389L173.11,226.389z"/>
		<path style="fill:#579ADD;" d="M295.771,245.341c37.981,2.105,47.392,5.789,47.392,28.425c0,16.322,0.856,32.378-55.606,32.378
			c-32.152,0-53.705-0.51-54.389-31.37c-0.019-0.843,0.672-1.535,1.515-1.535h29.844c0.807,0,1.466,0.639,1.508,1.445
			c0.463,8.925,5.577,9.878,21.521,9.878c16.082,0,21.389-0.794,21.389-9.085c0-8.552-1.883-8.422-17.966-9.21l-7.527-0.397
			c-31.653-1.712-50.129-1.581-50.129-29.873c0-28.297,20.7-30.139,54.233-30.139c28.061,0,52.014,0.397,52.014,27.637
			c0,2.013,0.345,4.078-1.514,4.078h-29.872c-0.803,0-1.459-0.634-1.507-1.435c-0.523-8.695-6.111-8.695-19.121-8.695
			c-18.475,0-20.016,2.893-20.016,8.422C267.54,245.299,273.698,244.111,295.771,245.341L295.771,245.341z"/>
		<path style="fill:#579ADD;" d="M385.564,305.35h-32.703c-0.836,0-1.514-0.678-1.514-1.514v-95.673
			c0-0.836,0.678-1.514,1.514-1.514h31.19c0.836,0,1.514,0.678,1.514,1.514v97.187H385.564z"/>
		<path style="fill:#579ADD;" d="M393.264,269.951v-27.9c0-30.4,24.637-36.192,59.367-36.192c34.732,0,59.37,5.792,59.37,36.192
			v27.901c0,30.4-24.637,36.192-59.37,36.192C417.901,306.143,393.264,300.351,393.264,269.951L393.264,269.951z M476.756,267.055
			v-22.242c0-14.608-6.331-16.056-24.125-16.056s-23.61,1.448-24.122,16.056v22.242c0.512,14.741,6.328,16.186,24.122,16.186
			S476.756,281.796,476.756,267.055L476.756,267.055z"/>
	</g>
	<g>
		<path style="fill:#4987CE;" d="M20.605,268.767v-25.532c0-29.676,18.816-36.285,50.523-37.24
			c-3.345-0.097-6.911-0.136-10.734-0.136C22.756,205.859,0,210.596,0,243.235v25.532c0,36.062,25.493,37.376,60.394,37.376
			c3.467,0,6.894,0.003,10.263-0.079C41.179,305.513,20.605,301.158,20.605,268.767z"/>
		<path style="fill:#4987CE;" d="M129.335,303.286l37.315-95.674c0.227-0.581,0.787-0.964,1.41-0.964h-20.605
			c-0.624,0-1.183,0.383-1.41,0.964l-37.315,95.674c-0.387,0.992,0.345,2.064,1.41,2.064h20.605
			C129.68,305.35,128.948,304.279,129.335,303.286z"/>
		<path style="fill:#4987CE;" d="M253.773,274.773c-0.019-0.843,0.672-1.535,1.515-1.535h-20.605c-0.843,0-1.534,0.692-1.515,1.535
			c0.684,30.86,22.236,31.37,54.388,31.37c2.748,0,5.355-0.039,7.838-0.113C270.425,305.411,254.361,301.34,253.773,274.773z"/>
		<path style="fill:#4987CE;" d="M254.443,243.319l0.009-0.002c-0.22-1.471-0.538-4.423-0.502-5.743l0.011,0.005
			c-0.699-26.886,16.172-31.065,44.455-31.635c-3.519-0.075-7.152-0.084-10.86-0.084c-33.533,0-54.233,1.842-54.233,30.139
			c0,23.995,13.308,27.542,36.656,29.111C255.214,257.247,254.443,243.319,254.443,243.319z"/>
		<path style="fill:#4987CE;" d="M371.952,303.836v-95.673c0-0.836,0.678-1.514,1.514-1.514h-20.605
			c-0.836,0-1.514,0.678-1.514,1.514v95.673c0,0.836,0.678,1.514,1.514,1.514h20.605C372.63,305.35,371.952,304.672,371.952,303.836
			z"/>
		<path style="fill:#4987CE;" d="M462.963,282.884c2.869,0.282,6.264,0.357,10.272,0.357c17.794,0,24.125-1.445,24.125-16.186
			v-22.242c0-14.608-6.331-16.056-24.125-16.056c-4.008,0-7.403,0.076-10.272,0.356c9.987,0.966,13.792,4.382,13.792,15.699v22.242
			C476.755,278.476,472.95,281.914,462.963,282.884z"/>
		<path style="fill:#4987CE;" d="M413.868,269.951V242.05c0-27.295,19.869-34.748,49.065-35.986
			c-3.321-0.141-6.756-0.206-10.303-0.206c-34.729,0-59.367,5.792-59.367,36.192v27.901c0,30.4,24.637,36.192,59.367,36.192
			c3.547,0,6.982-0.065,10.303-0.206C433.737,304.699,413.868,297.247,413.868,269.951z"/>
	</g>
</g>
<g>
</g>
<g>
</g>
<g>
</g>
<g>
</g>
<g>
</g>
<g>
</g>
<g>
</g>
<g>
</g>
<g>
</g>
<g>
</g>
<g>
</g>
<g>
</g>
<g>
</g>
<g>
</g>
<g>
</g>
</svg>
